<mxfile host="app.diagrams.net" agent="Mozilla/5.0 (Windows NT 10.0; Win64; x64) AppleWebKit/537.36 (KHTML, like Gecko) Chrome/128.0.0.0 Safari/537.36" version="24.7.14">
  <diagram name="Página-1" id="2HnlQTJeK8PBr19iT61Z">
    <mxGraphModel dx="4734" dy="780" grid="1" gridSize="10" guides="1" tooltips="1" connect="1" arrows="1" fold="1" page="1" pageScale="1" pageWidth="3300" pageHeight="4681" math="0" shadow="0">
      <root>
        <mxCell id="0" />
        <mxCell id="1" parent="0" />
        <mxCell id="R_zZnniNDLEBb9LRn-yh-6" value="" style="edgeStyle=orthogonalEdgeStyle;rounded=0;orthogonalLoop=1;jettySize=auto;html=1;" edge="1" parent="1" source="R_zZnniNDLEBb9LRn-yh-24" target="R_zZnniNDLEBb9LRn-yh-3">
          <mxGeometry relative="1" as="geometry" />
        </mxCell>
        <mxCell id="R_zZnniNDLEBb9LRn-yh-1" value="&lt;font style=&quot;font-size: 24px;&quot;&gt;Início&lt;/font&gt;" style="ellipse;whiteSpace=wrap;html=1;" vertex="1" parent="1">
          <mxGeometry x="60" y="10" width="140" height="80" as="geometry" />
        </mxCell>
        <mxCell id="R_zZnniNDLEBb9LRn-yh-7" value="" style="edgeStyle=orthogonalEdgeStyle;rounded=0;orthogonalLoop=1;jettySize=auto;html=1;" edge="1" parent="1" source="R_zZnniNDLEBb9LRn-yh-3" target="R_zZnniNDLEBb9LRn-yh-5">
          <mxGeometry relative="1" as="geometry" />
        </mxCell>
        <mxCell id="R_zZnniNDLEBb9LRn-yh-3" value="Evento" style="shape=manualInput;whiteSpace=wrap;html=1;" vertex="1" parent="1">
          <mxGeometry x="75" y="180" width="110" height="80" as="geometry" />
        </mxCell>
        <mxCell id="R_zZnniNDLEBb9LRn-yh-4" value="Digite o nome do evento" style="shape=display;whiteSpace=wrap;html=1;" vertex="1" parent="1">
          <mxGeometry x="55" y="300" width="160" height="50" as="geometry" />
        </mxCell>
        <mxCell id="R_zZnniNDLEBb9LRn-yh-10" value="" style="edgeStyle=orthogonalEdgeStyle;rounded=0;orthogonalLoop=1;jettySize=auto;html=1;" edge="1" parent="1" source="R_zZnniNDLEBb9LRn-yh-5" target="R_zZnniNDLEBb9LRn-yh-8">
          <mxGeometry relative="1" as="geometry" />
        </mxCell>
        <mxCell id="R_zZnniNDLEBb9LRn-yh-5" value="DataEvento" style="shape=manualInput;whiteSpace=wrap;html=1;" vertex="1" parent="1">
          <mxGeometry x="90" y="370" width="80" height="80" as="geometry" />
        </mxCell>
        <mxCell id="R_zZnniNDLEBb9LRn-yh-16" value="" style="edgeStyle=orthogonalEdgeStyle;rounded=0;orthogonalLoop=1;jettySize=auto;html=1;" edge="1" parent="1" source="R_zZnniNDLEBb9LRn-yh-8" target="R_zZnniNDLEBb9LRn-yh-13">
          <mxGeometry relative="1" as="geometry" />
        </mxCell>
        <mxCell id="R_zZnniNDLEBb9LRn-yh-23" value="" style="edgeStyle=orthogonalEdgeStyle;rounded=0;orthogonalLoop=1;jettySize=auto;html=1;" edge="1" parent="1" source="R_zZnniNDLEBb9LRn-yh-8" target="R_zZnniNDLEBb9LRn-yh-22">
          <mxGeometry relative="1" as="geometry" />
        </mxCell>
        <mxCell id="R_zZnniNDLEBb9LRn-yh-8" value="DataEvento &amp;gt; Data Atual" style="rhombus;whiteSpace=wrap;html=1;" vertex="1" parent="1">
          <mxGeometry x="65" y="480" width="130" height="120" as="geometry" />
        </mxCell>
        <mxCell id="R_zZnniNDLEBb9LRn-yh-13" value="Data inválida" style="shape=display;whiteSpace=wrap;html=1;" vertex="1" parent="1">
          <mxGeometry x="240" y="520" width="140" height="40" as="geometry" />
        </mxCell>
        <mxCell id="R_zZnniNDLEBb9LRn-yh-14" value="F" style="text;html=1;align=center;verticalAlign=middle;resizable=0;points=[];autosize=1;strokeColor=none;fillColor=none;" vertex="1" parent="1">
          <mxGeometry x="195" y="498" width="30" height="30" as="geometry" />
        </mxCell>
        <mxCell id="R_zZnniNDLEBb9LRn-yh-21" value="V" style="text;html=1;align=center;verticalAlign=middle;resizable=0;points=[];autosize=1;strokeColor=none;fillColor=none;" vertex="1" parent="1">
          <mxGeometry x="65" y="588" width="30" height="30" as="geometry" />
        </mxCell>
        <mxCell id="R_zZnniNDLEBb9LRn-yh-27" value="" style="edgeStyle=orthogonalEdgeStyle;rounded=0;orthogonalLoop=1;jettySize=auto;html=1;" edge="1" parent="1" source="R_zZnniNDLEBb9LRn-yh-22" target="R_zZnniNDLEBb9LRn-yh-26">
          <mxGeometry relative="1" as="geometry" />
        </mxCell>
        <mxCell id="R_zZnniNDLEBb9LRn-yh-22" value="totalParticipantes = 0&lt;div&gt;totalPalestrantes = 0&lt;/div&gt;" style="rounded=0;whiteSpace=wrap;html=1;" vertex="1" parent="1">
          <mxGeometry x="55" y="630" width="150" height="40" as="geometry" />
        </mxCell>
        <mxCell id="R_zZnniNDLEBb9LRn-yh-25" value="" style="edgeStyle=orthogonalEdgeStyle;rounded=0;orthogonalLoop=1;jettySize=auto;html=1;" edge="1" parent="1" source="R_zZnniNDLEBb9LRn-yh-1" target="R_zZnniNDLEBb9LRn-yh-24">
          <mxGeometry relative="1" as="geometry">
            <mxPoint x="130" y="90" as="sourcePoint" />
            <mxPoint x="130" y="180" as="targetPoint" />
          </mxGeometry>
        </mxCell>
        <mxCell id="R_zZnniNDLEBb9LRn-yh-24" value="&quot;Digite o nome do evento:&quot;" style="shape=display;whiteSpace=wrap;html=1;" vertex="1" parent="1">
          <mxGeometry x="50" y="110" width="160" height="50" as="geometry" />
        </mxCell>
        <mxCell id="R_zZnniNDLEBb9LRn-yh-29" value="" style="edgeStyle=orthogonalEdgeStyle;rounded=0;orthogonalLoop=1;jettySize=auto;html=1;" edge="1" parent="1" source="R_zZnniNDLEBb9LRn-yh-26" target="R_zZnniNDLEBb9LRn-yh-28">
          <mxGeometry relative="1" as="geometry" />
        </mxCell>
        <mxCell id="R_zZnniNDLEBb9LRn-yh-86" value="" style="edgeStyle=orthogonalEdgeStyle;rounded=0;orthogonalLoop=1;jettySize=auto;html=1;" edge="1" parent="1" source="R_zZnniNDLEBb9LRn-yh-26" target="R_zZnniNDLEBb9LRn-yh-85">
          <mxGeometry relative="1" as="geometry" />
        </mxCell>
        <mxCell id="R_zZnniNDLEBb9LRn-yh-26" value="totalParticipantes &amp;lt;= 100&lt;div&gt;&amp;nbsp;&lt;/div&gt;" style="rhombus;whiteSpace=wrap;html=1;rounded=0;" vertex="1" parent="1">
          <mxGeometry x="35" y="720" width="190" height="110" as="geometry" />
        </mxCell>
        <mxCell id="R_zZnniNDLEBb9LRn-yh-31" value="" style="edgeStyle=orthogonalEdgeStyle;rounded=0;orthogonalLoop=1;jettySize=auto;html=1;" edge="1" parent="1" source="R_zZnniNDLEBb9LRn-yh-28" target="R_zZnniNDLEBb9LRn-yh-30">
          <mxGeometry relative="1" as="geometry" />
        </mxCell>
        <mxCell id="R_zZnniNDLEBb9LRn-yh-28" value="Você é Participante?&amp;nbsp;&lt;div&gt;Digite 1 para a opção de Palestrantes&lt;/div&gt;&lt;div&gt;Para Participantes digite 2.&amp;nbsp;&lt;div&gt;Caso queira ver a lista total, digite 3.&amp;nbsp;&lt;/div&gt;&lt;/div&gt;" style="shape=display;whiteSpace=wrap;html=1;" vertex="1" parent="1">
          <mxGeometry x="18.13" y="880" width="262.5" height="100" as="geometry" />
        </mxCell>
        <mxCell id="R_zZnniNDLEBb9LRn-yh-44" value="" style="edgeStyle=orthogonalEdgeStyle;rounded=0;orthogonalLoop=1;jettySize=auto;html=1;" edge="1" parent="1" source="R_zZnniNDLEBb9LRn-yh-30" target="R_zZnniNDLEBb9LRn-yh-32">
          <mxGeometry relative="1" as="geometry" />
        </mxCell>
        <mxCell id="R_zZnniNDLEBb9LRn-yh-30" value="Opçao" style="shape=manualInput;whiteSpace=wrap;html=1;" vertex="1" parent="1">
          <mxGeometry x="79.38" y="1010" width="141.25" height="70" as="geometry" />
        </mxCell>
        <mxCell id="R_zZnniNDLEBb9LRn-yh-39" value="" style="edgeStyle=orthogonalEdgeStyle;rounded=0;orthogonalLoop=1;jettySize=auto;html=1;" edge="1" parent="1" source="R_zZnniNDLEBb9LRn-yh-32" target="R_zZnniNDLEBb9LRn-yh-34">
          <mxGeometry relative="1" as="geometry" />
        </mxCell>
        <mxCell id="R_zZnniNDLEBb9LRn-yh-58" value="" style="edgeStyle=orthogonalEdgeStyle;rounded=0;orthogonalLoop=1;jettySize=auto;html=1;" edge="1" parent="1" source="R_zZnniNDLEBb9LRn-yh-32" target="R_zZnniNDLEBb9LRn-yh-57">
          <mxGeometry relative="1" as="geometry" />
        </mxCell>
        <mxCell id="R_zZnniNDLEBb9LRn-yh-32" value="Opcao == 1&amp;nbsp;" style="rhombus;whiteSpace=wrap;html=1;rounded=0;" vertex="1" parent="1">
          <mxGeometry x="54.379999999999995" y="1118" width="190" height="90" as="geometry" />
        </mxCell>
        <mxCell id="R_zZnniNDLEBb9LRn-yh-33" value="V" style="text;html=1;align=center;verticalAlign=middle;resizable=0;points=[];autosize=1;strokeColor=none;fillColor=none;" vertex="1" parent="1">
          <mxGeometry x="235" y="1118" width="30" height="30" as="geometry" />
        </mxCell>
        <mxCell id="R_zZnniNDLEBb9LRn-yh-37" value="" style="edgeStyle=orthogonalEdgeStyle;rounded=0;orthogonalLoop=1;jettySize=auto;html=1;" edge="1" parent="1" source="R_zZnniNDLEBb9LRn-yh-34" target="R_zZnniNDLEBb9LRn-yh-36">
          <mxGeometry relative="1" as="geometry" />
        </mxCell>
        <mxCell id="R_zZnniNDLEBb9LRn-yh-34" value="&quot;Digite seu nome:&quot;" style="shape=display;whiteSpace=wrap;html=1;" vertex="1" parent="1">
          <mxGeometry x="510" y="1143" width="140" height="40" as="geometry" />
        </mxCell>
        <mxCell id="R_zZnniNDLEBb9LRn-yh-35" value="F" style="text;html=1;align=center;verticalAlign=middle;resizable=0;points=[];autosize=1;strokeColor=none;fillColor=none;" vertex="1" parent="1">
          <mxGeometry x="88.75" y="1210" width="30" height="30" as="geometry" />
        </mxCell>
        <mxCell id="R_zZnniNDLEBb9LRn-yh-41" value="" style="edgeStyle=orthogonalEdgeStyle;rounded=0;orthogonalLoop=1;jettySize=auto;html=1;" edge="1" parent="1" source="R_zZnniNDLEBb9LRn-yh-36" target="R_zZnniNDLEBb9LRn-yh-40">
          <mxGeometry relative="1" as="geometry" />
        </mxCell>
        <mxCell id="R_zZnniNDLEBb9LRn-yh-36" value="&lt;div&gt;&lt;br&gt;&lt;/div&gt;nomeParticipante&amp;nbsp;" style="shape=manualInput;whiteSpace=wrap;html=1;" vertex="1" parent="1">
          <mxGeometry x="499.69" y="1230" width="160.62" height="70" as="geometry" />
        </mxCell>
        <mxCell id="R_zZnniNDLEBb9LRn-yh-43" value="" style="edgeStyle=orthogonalEdgeStyle;rounded=0;orthogonalLoop=1;jettySize=auto;html=1;" edge="1" parent="1" source="R_zZnniNDLEBb9LRn-yh-40" target="R_zZnniNDLEBb9LRn-yh-42">
          <mxGeometry relative="1" as="geometry" />
        </mxCell>
        <mxCell id="R_zZnniNDLEBb9LRn-yh-40" value="&quot;Digite sua idade:&quot;" style="shape=display;whiteSpace=wrap;html=1;" vertex="1" parent="1">
          <mxGeometry x="510" y="1360" width="140" height="40" as="geometry" />
        </mxCell>
        <mxCell id="R_zZnniNDLEBb9LRn-yh-53" value="" style="edgeStyle=orthogonalEdgeStyle;rounded=0;orthogonalLoop=1;jettySize=auto;html=1;" edge="1" parent="1" source="R_zZnniNDLEBb9LRn-yh-42" target="R_zZnniNDLEBb9LRn-yh-45">
          <mxGeometry relative="1" as="geometry" />
        </mxCell>
        <mxCell id="R_zZnniNDLEBb9LRn-yh-42" value="idadeParticipante&lt;div&gt;&lt;/div&gt;" style="shape=manualInput;whiteSpace=wrap;html=1;" vertex="1" parent="1">
          <mxGeometry x="499.69" y="1440" width="160.62" height="70" as="geometry" />
        </mxCell>
        <mxCell id="R_zZnniNDLEBb9LRn-yh-64" value="" style="edgeStyle=orthogonalEdgeStyle;rounded=0;orthogonalLoop=1;jettySize=auto;html=1;" edge="1" parent="1" source="R_zZnniNDLEBb9LRn-yh-45" target="R_zZnniNDLEBb9LRn-yh-50">
          <mxGeometry relative="1" as="geometry" />
        </mxCell>
        <mxCell id="R_zZnniNDLEBb9LRn-yh-65" value="" style="edgeStyle=orthogonalEdgeStyle;rounded=0;orthogonalLoop=1;jettySize=auto;html=1;" edge="1" parent="1" source="R_zZnniNDLEBb9LRn-yh-45" target="R_zZnniNDLEBb9LRn-yh-48">
          <mxGeometry relative="1" as="geometry" />
        </mxCell>
        <mxCell id="R_zZnniNDLEBb9LRn-yh-45" value="idadeParticipante &amp;gt;= 18" style="rhombus;whiteSpace=wrap;html=1;rounded=0;" vertex="1" parent="1">
          <mxGeometry x="485" y="1550" width="190" height="90" as="geometry" />
        </mxCell>
        <mxCell id="R_zZnniNDLEBb9LRn-yh-46" value="V" style="text;html=1;align=center;verticalAlign=middle;resizable=0;points=[];autosize=1;strokeColor=none;fillColor=none;" vertex="1" parent="1">
          <mxGeometry x="530" y="1630" width="30" height="30" as="geometry" />
        </mxCell>
        <mxCell id="R_zZnniNDLEBb9LRn-yh-47" value="F" style="text;html=1;align=center;verticalAlign=middle;resizable=0;points=[];autosize=1;strokeColor=none;fillColor=none;" vertex="1" parent="1">
          <mxGeometry x="655" y="1560" width="30" height="30" as="geometry" />
        </mxCell>
        <mxCell id="R_zZnniNDLEBb9LRn-yh-79" style="edgeStyle=orthogonalEdgeStyle;rounded=0;orthogonalLoop=1;jettySize=auto;html=1;exitX=1;exitY=0.5;exitDx=0;exitDy=0;exitPerimeter=0;entryX=0;entryY=0.5;entryDx=0;entryDy=0;" edge="1" parent="1">
          <mxGeometry relative="1" as="geometry">
            <mxPoint x="880" y="1592.5" as="sourcePoint" />
            <mxPoint x="35" y="772.5" as="targetPoint" />
            <Array as="points">
              <mxPoint x="900" y="1593" />
              <mxPoint x="900" y="1780" />
              <mxPoint x="-80" y="1780" />
              <mxPoint x="-80" y="773" />
            </Array>
          </mxGeometry>
        </mxCell>
        <mxCell id="R_zZnniNDLEBb9LRn-yh-48" value="&quot;Idade inválida&quot;" style="shape=display;whiteSpace=wrap;html=1;" vertex="1" parent="1">
          <mxGeometry x="740" y="1575" width="140" height="40" as="geometry" />
        </mxCell>
        <mxCell id="R_zZnniNDLEBb9LRn-yh-84" style="edgeStyle=orthogonalEdgeStyle;rounded=0;orthogonalLoop=1;jettySize=auto;html=1;exitX=0.5;exitY=1;exitDx=0;exitDy=0;" edge="1" parent="1" source="R_zZnniNDLEBb9LRn-yh-50">
          <mxGeometry relative="1" as="geometry">
            <mxPoint x="615" y="1780" as="targetPoint" />
          </mxGeometry>
        </mxCell>
        <mxCell id="R_zZnniNDLEBb9LRn-yh-50" value="totalParticipantes = totalParticipantes + 1&amp;nbsp;" style="rounded=0;whiteSpace=wrap;html=1;" vertex="1" parent="1">
          <mxGeometry x="510" y="1680" width="210" height="60" as="geometry" />
        </mxCell>
        <mxCell id="R_zZnniNDLEBb9LRn-yh-62" value="" style="edgeStyle=orthogonalEdgeStyle;rounded=0;orthogonalLoop=1;jettySize=auto;html=1;" edge="1" parent="1" source="R_zZnniNDLEBb9LRn-yh-54" target="R_zZnniNDLEBb9LRn-yh-61">
          <mxGeometry relative="1" as="geometry" />
        </mxCell>
        <mxCell id="R_zZnniNDLEBb9LRn-yh-54" value="&lt;div&gt;&lt;br&gt;&lt;/div&gt;nomePalestrante" style="shape=manualInput;whiteSpace=wrap;html=1;" vertex="1" parent="1">
          <mxGeometry x="289.69" y="1360" width="160.62" height="70" as="geometry" />
        </mxCell>
        <mxCell id="R_zZnniNDLEBb9LRn-yh-60" value="" style="edgeStyle=orthogonalEdgeStyle;rounded=0;orthogonalLoop=1;jettySize=auto;html=1;" edge="1" parent="1" source="R_zZnniNDLEBb9LRn-yh-55" target="R_zZnniNDLEBb9LRn-yh-54">
          <mxGeometry relative="1" as="geometry" />
        </mxCell>
        <mxCell id="R_zZnniNDLEBb9LRn-yh-55" value="&quot;Digite seu nome:&quot;" style="shape=display;whiteSpace=wrap;html=1;" vertex="1" parent="1">
          <mxGeometry x="300" y="1275" width="140" height="40" as="geometry" />
        </mxCell>
        <mxCell id="R_zZnniNDLEBb9LRn-yh-81" style="edgeStyle=orthogonalEdgeStyle;rounded=0;orthogonalLoop=1;jettySize=auto;html=1;exitX=0.5;exitY=1;exitDx=0;exitDy=0;" edge="1" parent="1" source="R_zZnniNDLEBb9LRn-yh-56">
          <mxGeometry relative="1" as="geometry">
            <mxPoint x="370" y="1780" as="targetPoint" />
          </mxGeometry>
        </mxCell>
        <mxCell id="R_zZnniNDLEBb9LRn-yh-56" value="nomePalestra&lt;div&gt;&lt;/div&gt;" style="shape=manualInput;whiteSpace=wrap;html=1;" vertex="1" parent="1">
          <mxGeometry x="289.69" y="1570" width="160.62" height="70" as="geometry" />
        </mxCell>
        <mxCell id="R_zZnniNDLEBb9LRn-yh-66" value="" style="edgeStyle=orthogonalEdgeStyle;rounded=0;orthogonalLoop=1;jettySize=auto;html=1;" edge="1" parent="1" source="R_zZnniNDLEBb9LRn-yh-57" target="R_zZnniNDLEBb9LRn-yh-55">
          <mxGeometry relative="1" as="geometry" />
        </mxCell>
        <mxCell id="R_zZnniNDLEBb9LRn-yh-68" value="" style="edgeStyle=orthogonalEdgeStyle;rounded=0;orthogonalLoop=1;jettySize=auto;html=1;" edge="1" parent="1" source="R_zZnniNDLEBb9LRn-yh-57" target="R_zZnniNDLEBb9LRn-yh-67">
          <mxGeometry relative="1" as="geometry" />
        </mxCell>
        <mxCell id="R_zZnniNDLEBb9LRn-yh-57" value="Opcao == 2&amp;nbsp;" style="rhombus;whiteSpace=wrap;html=1;rounded=0;" vertex="1" parent="1">
          <mxGeometry x="55" y="1250" width="190" height="90" as="geometry" />
        </mxCell>
        <mxCell id="R_zZnniNDLEBb9LRn-yh-63" value="" style="edgeStyle=orthogonalEdgeStyle;rounded=0;orthogonalLoop=1;jettySize=auto;html=1;" edge="1" parent="1" source="R_zZnniNDLEBb9LRn-yh-61" target="R_zZnniNDLEBb9LRn-yh-56">
          <mxGeometry relative="1" as="geometry" />
        </mxCell>
        <mxCell id="R_zZnniNDLEBb9LRn-yh-61" value="&quot;Digite o nome da sua palestra:&quot;" style="shape=display;whiteSpace=wrap;html=1;" vertex="1" parent="1">
          <mxGeometry x="295" y="1470" width="150" height="60" as="geometry" />
        </mxCell>
        <mxCell id="R_zZnniNDLEBb9LRn-yh-71" value="" style="edgeStyle=orthogonalEdgeStyle;rounded=0;orthogonalLoop=1;jettySize=auto;html=1;" edge="1" parent="1" source="R_zZnniNDLEBb9LRn-yh-67" target="R_zZnniNDLEBb9LRn-yh-70">
          <mxGeometry relative="1" as="geometry" />
        </mxCell>
        <mxCell id="R_zZnniNDLEBb9LRn-yh-67" value="Opcao == 3" style="rhombus;whiteSpace=wrap;html=1;rounded=0;" vertex="1" parent="1">
          <mxGeometry x="55" y="1370" width="190" height="90" as="geometry" />
        </mxCell>
        <mxCell id="R_zZnniNDLEBb9LRn-yh-73" value="" style="edgeStyle=orthogonalEdgeStyle;rounded=0;orthogonalLoop=1;jettySize=auto;html=1;" edge="1" parent="1" source="R_zZnniNDLEBb9LRn-yh-70" target="R_zZnniNDLEBb9LRn-yh-72">
          <mxGeometry relative="1" as="geometry" />
        </mxCell>
        <mxCell id="R_zZnniNDLEBb9LRn-yh-70" value="de total =0 até total &amp;lt; totalPalestrantes" style="shape=hexagon;perimeter=hexagonPerimeter2;whiteSpace=wrap;html=1;fixedSize=1;" vertex="1" parent="1">
          <mxGeometry x="50" y="1490" width="200" height="40" as="geometry" />
        </mxCell>
        <mxCell id="R_zZnniNDLEBb9LRn-yh-74" style="edgeStyle=orthogonalEdgeStyle;rounded=0;orthogonalLoop=1;jettySize=auto;html=1;exitX=0;exitY=0;exitDx=101.25;exitDy=95;exitPerimeter=0;entryX=0;entryY=0.5;entryDx=0;entryDy=0;" edge="1" parent="1" source="R_zZnniNDLEBb9LRn-yh-72" target="R_zZnniNDLEBb9LRn-yh-70">
          <mxGeometry relative="1" as="geometry">
            <Array as="points">
              <mxPoint x="151" y="1700" />
              <mxPoint x="30" y="1700" />
              <mxPoint x="30" y="1510" />
            </Array>
          </mxGeometry>
        </mxCell>
        <mxCell id="R_zZnniNDLEBb9LRn-yh-72" value="&quot;Palestrante:&quot; nomePalestrante&lt;div&gt;&quot;Tema: &quot; nomePalestra&lt;/div&gt;" style="shape=display;whiteSpace=wrap;html=1;" vertex="1" parent="1">
          <mxGeometry x="49.38" y="1565" width="200" height="95" as="geometry" />
        </mxCell>
        <mxCell id="R_zZnniNDLEBb9LRn-yh-77" style="edgeStyle=orthogonalEdgeStyle;rounded=0;orthogonalLoop=1;jettySize=auto;html=1;exitX=1;exitY=0.5;exitDx=0;exitDy=0;entryX=0;entryY=0.5;entryDx=0;entryDy=0;entryPerimeter=0;" edge="1" parent="1" source="R_zZnniNDLEBb9LRn-yh-70" target="R_zZnniNDLEBb9LRn-yh-28">
          <mxGeometry relative="1" as="geometry">
            <Array as="points">
              <mxPoint x="250" y="1730" />
              <mxPoint x="-40" y="1730" />
              <mxPoint x="-40" y="930" />
            </Array>
          </mxGeometry>
        </mxCell>
        <mxCell id="R_zZnniNDLEBb9LRn-yh-83" value="totalPalestrantes = totalPalestrantes + 1&amp;nbsp;" style="rounded=0;whiteSpace=wrap;html=1;" vertex="1" parent="1">
          <mxGeometry x="275" y="1680" width="210" height="60" as="geometry" />
        </mxCell>
        <mxCell id="R_zZnniNDLEBb9LRn-yh-90" value="" style="edgeStyle=orthogonalEdgeStyle;rounded=0;orthogonalLoop=1;jettySize=auto;html=1;" edge="1" parent="1" source="R_zZnniNDLEBb9LRn-yh-85" target="R_zZnniNDLEBb9LRn-yh-89">
          <mxGeometry relative="1" as="geometry" />
        </mxCell>
        <mxCell id="R_zZnniNDLEBb9LRn-yh-85" value="&quot;Limite de cadastro excedido&quot;" style="shape=display;whiteSpace=wrap;html=1;" vertex="1" parent="1">
          <mxGeometry x="285.63" y="752.5" width="159.37" height="45" as="geometry" />
        </mxCell>
        <mxCell id="R_zZnniNDLEBb9LRn-yh-87" value="F" style="text;html=1;align=center;verticalAlign=middle;resizable=0;points=[];autosize=1;strokeColor=none;fillColor=none;" vertex="1" parent="1">
          <mxGeometry x="205" y="728" width="30" height="30" as="geometry" />
        </mxCell>
        <mxCell id="R_zZnniNDLEBb9LRn-yh-88" value="V" style="text;html=1;align=center;verticalAlign=middle;resizable=0;points=[];autosize=1;strokeColor=none;fillColor=none;" vertex="1" parent="1">
          <mxGeometry x="55" y="808" width="30" height="30" as="geometry" />
        </mxCell>
        <mxCell id="R_zZnniNDLEBb9LRn-yh-89" value="FIM" style="ellipse;whiteSpace=wrap;html=1;aspect=fixed;" vertex="1" parent="1">
          <mxGeometry x="485" y="735" width="80" height="80" as="geometry" />
        </mxCell>
        <mxCell id="R_zZnniNDLEBb9LRn-yh-91" value="" style="edgeStyle=orthogonalEdgeStyle;rounded=0;orthogonalLoop=1;jettySize=auto;html=1;" edge="1" parent="1" source="R_zZnniNDLEBb9LRn-yh-107" target="R_zZnniNDLEBb9LRn-yh-94">
          <mxGeometry relative="1" as="geometry" />
        </mxCell>
        <mxCell id="R_zZnniNDLEBb9LRn-yh-92" value="&lt;font style=&quot;font-size: 24px;&quot;&gt;Início&lt;/font&gt;" style="ellipse;whiteSpace=wrap;html=1;" vertex="1" parent="1">
          <mxGeometry x="180" y="1830" width="140" height="80" as="geometry" />
        </mxCell>
        <mxCell id="R_zZnniNDLEBb9LRn-yh-93" value="" style="edgeStyle=orthogonalEdgeStyle;rounded=0;orthogonalLoop=1;jettySize=auto;html=1;" edge="1" parent="1" source="R_zZnniNDLEBb9LRn-yh-94" target="R_zZnniNDLEBb9LRn-yh-97">
          <mxGeometry relative="1" as="geometry" />
        </mxCell>
        <mxCell id="R_zZnniNDLEBb9LRn-yh-94" value="Evento" style="shape=manualInput;whiteSpace=wrap;html=1;" vertex="1" parent="1">
          <mxGeometry x="195" y="2000" width="110" height="80" as="geometry" />
        </mxCell>
        <mxCell id="R_zZnniNDLEBb9LRn-yh-95" value="Digite o nome do evento" style="shape=display;whiteSpace=wrap;html=1;" vertex="1" parent="1">
          <mxGeometry x="175" y="2120" width="160" height="50" as="geometry" />
        </mxCell>
        <mxCell id="R_zZnniNDLEBb9LRn-yh-96" value="" style="edgeStyle=orthogonalEdgeStyle;rounded=0;orthogonalLoop=1;jettySize=auto;html=1;" edge="1" parent="1" source="R_zZnniNDLEBb9LRn-yh-97" target="R_zZnniNDLEBb9LRn-yh-100">
          <mxGeometry relative="1" as="geometry" />
        </mxCell>
        <mxCell id="R_zZnniNDLEBb9LRn-yh-97" value="DataEvento" style="shape=manualInput;whiteSpace=wrap;html=1;" vertex="1" parent="1">
          <mxGeometry x="210" y="2190" width="80" height="80" as="geometry" />
        </mxCell>
        <mxCell id="R_zZnniNDLEBb9LRn-yh-98" value="" style="edgeStyle=orthogonalEdgeStyle;rounded=0;orthogonalLoop=1;jettySize=auto;html=1;" edge="1" parent="1" source="R_zZnniNDLEBb9LRn-yh-100" target="R_zZnniNDLEBb9LRn-yh-101">
          <mxGeometry relative="1" as="geometry" />
        </mxCell>
        <mxCell id="R_zZnniNDLEBb9LRn-yh-99" value="" style="edgeStyle=orthogonalEdgeStyle;rounded=0;orthogonalLoop=1;jettySize=auto;html=1;" edge="1" parent="1" source="R_zZnniNDLEBb9LRn-yh-100" target="R_zZnniNDLEBb9LRn-yh-105">
          <mxGeometry relative="1" as="geometry" />
        </mxCell>
        <mxCell id="R_zZnniNDLEBb9LRn-yh-100" value="DataEvento &amp;gt; Data Atual" style="rhombus;whiteSpace=wrap;html=1;" vertex="1" parent="1">
          <mxGeometry x="185" y="2300" width="130" height="120" as="geometry" />
        </mxCell>
        <mxCell id="R_zZnniNDLEBb9LRn-yh-101" value="Data inválida" style="shape=display;whiteSpace=wrap;html=1;" vertex="1" parent="1">
          <mxGeometry x="360" y="2340" width="140" height="40" as="geometry" />
        </mxCell>
        <mxCell id="R_zZnniNDLEBb9LRn-yh-102" value="F" style="text;html=1;align=center;verticalAlign=middle;resizable=0;points=[];autosize=1;strokeColor=none;fillColor=none;" vertex="1" parent="1">
          <mxGeometry x="315" y="2318" width="30" height="30" as="geometry" />
        </mxCell>
        <mxCell id="R_zZnniNDLEBb9LRn-yh-103" value="V" style="text;html=1;align=center;verticalAlign=middle;resizable=0;points=[];autosize=1;strokeColor=none;fillColor=none;" vertex="1" parent="1">
          <mxGeometry x="185" y="2408" width="30" height="30" as="geometry" />
        </mxCell>
        <mxCell id="R_zZnniNDLEBb9LRn-yh-104" value="" style="edgeStyle=orthogonalEdgeStyle;rounded=0;orthogonalLoop=1;jettySize=auto;html=1;" edge="1" parent="1" source="R_zZnniNDLEBb9LRn-yh-105" target="R_zZnniNDLEBb9LRn-yh-110">
          <mxGeometry relative="1" as="geometry" />
        </mxCell>
        <mxCell id="R_zZnniNDLEBb9LRn-yh-105" value="totalParticipantes = 0&lt;div&gt;totalPalestrantes = 0&lt;/div&gt;" style="rounded=0;whiteSpace=wrap;html=1;" vertex="1" parent="1">
          <mxGeometry x="175" y="2450" width="150" height="40" as="geometry" />
        </mxCell>
        <mxCell id="R_zZnniNDLEBb9LRn-yh-106" value="" style="edgeStyle=orthogonalEdgeStyle;rounded=0;orthogonalLoop=1;jettySize=auto;html=1;" edge="1" parent="1" source="R_zZnniNDLEBb9LRn-yh-92" target="R_zZnniNDLEBb9LRn-yh-107">
          <mxGeometry relative="1" as="geometry">
            <mxPoint x="250" y="1910" as="sourcePoint" />
            <mxPoint x="250" y="2000" as="targetPoint" />
          </mxGeometry>
        </mxCell>
        <mxCell id="R_zZnniNDLEBb9LRn-yh-107" value="&quot;Digite o nome do evento:&quot;" style="shape=display;whiteSpace=wrap;html=1;" vertex="1" parent="1">
          <mxGeometry x="170" y="1930" width="160" height="50" as="geometry" />
        </mxCell>
        <mxCell id="R_zZnniNDLEBb9LRn-yh-108" value="" style="edgeStyle=orthogonalEdgeStyle;rounded=0;orthogonalLoop=1;jettySize=auto;html=1;" edge="1" parent="1" source="R_zZnniNDLEBb9LRn-yh-110" target="R_zZnniNDLEBb9LRn-yh-112">
          <mxGeometry relative="1" as="geometry" />
        </mxCell>
        <mxCell id="R_zZnniNDLEBb9LRn-yh-109" value="" style="edgeStyle=orthogonalEdgeStyle;rounded=0;orthogonalLoop=1;jettySize=auto;html=1;" edge="1" parent="1" source="R_zZnniNDLEBb9LRn-yh-110" target="R_zZnniNDLEBb9LRn-yh-157">
          <mxGeometry relative="1" as="geometry" />
        </mxCell>
        <mxCell id="R_zZnniNDLEBb9LRn-yh-110" value="totalParticipantes &amp;lt;= 100&lt;div&gt;&amp;nbsp;&lt;/div&gt;" style="rhombus;whiteSpace=wrap;html=1;rounded=0;" vertex="1" parent="1">
          <mxGeometry x="155" y="2540" width="190" height="110" as="geometry" />
        </mxCell>
        <mxCell id="R_zZnniNDLEBb9LRn-yh-111" value="" style="edgeStyle=orthogonalEdgeStyle;rounded=0;orthogonalLoop=1;jettySize=auto;html=1;" edge="1" parent="1" source="R_zZnniNDLEBb9LRn-yh-112" target="R_zZnniNDLEBb9LRn-yh-114">
          <mxGeometry relative="1" as="geometry" />
        </mxCell>
        <mxCell id="R_zZnniNDLEBb9LRn-yh-112" value="Você é Participante?&amp;nbsp;&lt;div&gt;Digite 1 para a opção de Palestrantes&lt;/div&gt;&lt;div&gt;Para Participantes digite 2.&amp;nbsp;&lt;div&gt;Caso queira ver a lista total, digite 3.&amp;nbsp;&lt;/div&gt;&lt;/div&gt;" style="shape=display;whiteSpace=wrap;html=1;" vertex="1" parent="1">
          <mxGeometry x="138.13" y="2700" width="262.5" height="100" as="geometry" />
        </mxCell>
        <mxCell id="R_zZnniNDLEBb9LRn-yh-113" value="" style="edgeStyle=orthogonalEdgeStyle;rounded=0;orthogonalLoop=1;jettySize=auto;html=1;" edge="1" parent="1" source="R_zZnniNDLEBb9LRn-yh-114" target="R_zZnniNDLEBb9LRn-yh-117">
          <mxGeometry relative="1" as="geometry" />
        </mxCell>
        <mxCell id="R_zZnniNDLEBb9LRn-yh-114" value="Opçao" style="shape=manualInput;whiteSpace=wrap;html=1;" vertex="1" parent="1">
          <mxGeometry x="199.38" y="2830" width="141.25" height="70" as="geometry" />
        </mxCell>
        <mxCell id="R_zZnniNDLEBb9LRn-yh-115" value="" style="edgeStyle=orthogonalEdgeStyle;rounded=0;orthogonalLoop=1;jettySize=auto;html=1;" edge="1" parent="1" source="R_zZnniNDLEBb9LRn-yh-117" target="R_zZnniNDLEBb9LRn-yh-120">
          <mxGeometry relative="1" as="geometry" />
        </mxCell>
        <mxCell id="R_zZnniNDLEBb9LRn-yh-116" value="" style="edgeStyle=orthogonalEdgeStyle;rounded=0;orthogonalLoop=1;jettySize=auto;html=1;" edge="1" parent="1" source="R_zZnniNDLEBb9LRn-yh-117" target="R_zZnniNDLEBb9LRn-yh-145">
          <mxGeometry relative="1" as="geometry" />
        </mxCell>
        <mxCell id="R_zZnniNDLEBb9LRn-yh-117" value="Opcao == 1&amp;nbsp;" style="rhombus;whiteSpace=wrap;html=1;rounded=0;" vertex="1" parent="1">
          <mxGeometry x="174.38" y="2938" width="190" height="90" as="geometry" />
        </mxCell>
        <mxCell id="R_zZnniNDLEBb9LRn-yh-118" value="V" style="text;html=1;align=center;verticalAlign=middle;resizable=0;points=[];autosize=1;strokeColor=none;fillColor=none;" vertex="1" parent="1">
          <mxGeometry x="355" y="2938" width="30" height="30" as="geometry" />
        </mxCell>
        <mxCell id="R_zZnniNDLEBb9LRn-yh-119" value="" style="edgeStyle=orthogonalEdgeStyle;rounded=0;orthogonalLoop=1;jettySize=auto;html=1;" edge="1" parent="1" source="R_zZnniNDLEBb9LRn-yh-120" target="R_zZnniNDLEBb9LRn-yh-123">
          <mxGeometry relative="1" as="geometry" />
        </mxCell>
        <mxCell id="R_zZnniNDLEBb9LRn-yh-120" value="&quot;Digite seu nome:&quot;" style="shape=display;whiteSpace=wrap;html=1;" vertex="1" parent="1">
          <mxGeometry x="630" y="2963" width="140" height="40" as="geometry" />
        </mxCell>
        <mxCell id="R_zZnniNDLEBb9LRn-yh-121" value="F" style="text;html=1;align=center;verticalAlign=middle;resizable=0;points=[];autosize=1;strokeColor=none;fillColor=none;" vertex="1" parent="1">
          <mxGeometry x="208.75" y="3030" width="30" height="30" as="geometry" />
        </mxCell>
        <mxCell id="R_zZnniNDLEBb9LRn-yh-122" value="" style="edgeStyle=orthogonalEdgeStyle;rounded=0;orthogonalLoop=1;jettySize=auto;html=1;" edge="1" parent="1" source="R_zZnniNDLEBb9LRn-yh-123" target="R_zZnniNDLEBb9LRn-yh-125">
          <mxGeometry relative="1" as="geometry" />
        </mxCell>
        <mxCell id="R_zZnniNDLEBb9LRn-yh-123" value="&lt;div&gt;&lt;br&gt;&lt;/div&gt;nomeParticipante&amp;nbsp;" style="shape=manualInput;whiteSpace=wrap;html=1;" vertex="1" parent="1">
          <mxGeometry x="619.69" y="3050" width="160.62" height="70" as="geometry" />
        </mxCell>
        <mxCell id="R_zZnniNDLEBb9LRn-yh-124" value="" style="edgeStyle=orthogonalEdgeStyle;rounded=0;orthogonalLoop=1;jettySize=auto;html=1;" edge="1" parent="1" source="R_zZnniNDLEBb9LRn-yh-125" target="R_zZnniNDLEBb9LRn-yh-127">
          <mxGeometry relative="1" as="geometry" />
        </mxCell>
        <mxCell id="R_zZnniNDLEBb9LRn-yh-125" value="&quot;Digite sua idade:&quot;" style="shape=display;whiteSpace=wrap;html=1;" vertex="1" parent="1">
          <mxGeometry x="630" y="3180" width="140" height="40" as="geometry" />
        </mxCell>
        <mxCell id="R_zZnniNDLEBb9LRn-yh-126" value="" style="edgeStyle=orthogonalEdgeStyle;rounded=0;orthogonalLoop=1;jettySize=auto;html=1;" edge="1" parent="1" source="R_zZnniNDLEBb9LRn-yh-127" target="R_zZnniNDLEBb9LRn-yh-130">
          <mxGeometry relative="1" as="geometry" />
        </mxCell>
        <mxCell id="R_zZnniNDLEBb9LRn-yh-127" value="idadeParticipante&lt;div&gt;&lt;/div&gt;" style="shape=manualInput;whiteSpace=wrap;html=1;" vertex="1" parent="1">
          <mxGeometry x="619.69" y="3260" width="160.62" height="70" as="geometry" />
        </mxCell>
        <mxCell id="R_zZnniNDLEBb9LRn-yh-128" value="" style="edgeStyle=orthogonalEdgeStyle;rounded=0;orthogonalLoop=1;jettySize=auto;html=1;" edge="1" parent="1" source="R_zZnniNDLEBb9LRn-yh-130" target="R_zZnniNDLEBb9LRn-yh-136">
          <mxGeometry relative="1" as="geometry" />
        </mxCell>
        <mxCell id="R_zZnniNDLEBb9LRn-yh-129" value="" style="edgeStyle=orthogonalEdgeStyle;rounded=0;orthogonalLoop=1;jettySize=auto;html=1;" edge="1" parent="1" source="R_zZnniNDLEBb9LRn-yh-130" target="R_zZnniNDLEBb9LRn-yh-134">
          <mxGeometry relative="1" as="geometry" />
        </mxCell>
        <mxCell id="R_zZnniNDLEBb9LRn-yh-130" value="idadeParticipante &amp;gt;= 18" style="rhombus;whiteSpace=wrap;html=1;rounded=0;" vertex="1" parent="1">
          <mxGeometry x="605" y="3370" width="190" height="90" as="geometry" />
        </mxCell>
        <mxCell id="R_zZnniNDLEBb9LRn-yh-131" value="V" style="text;html=1;align=center;verticalAlign=middle;resizable=0;points=[];autosize=1;strokeColor=none;fillColor=none;" vertex="1" parent="1">
          <mxGeometry x="650" y="3450" width="30" height="30" as="geometry" />
        </mxCell>
        <mxCell id="R_zZnniNDLEBb9LRn-yh-132" value="F" style="text;html=1;align=center;verticalAlign=middle;resizable=0;points=[];autosize=1;strokeColor=none;fillColor=none;" vertex="1" parent="1">
          <mxGeometry x="775" y="3380" width="30" height="30" as="geometry" />
        </mxCell>
        <mxCell id="R_zZnniNDLEBb9LRn-yh-133" style="edgeStyle=orthogonalEdgeStyle;rounded=0;orthogonalLoop=1;jettySize=auto;html=1;exitX=1;exitY=0.5;exitDx=0;exitDy=0;exitPerimeter=0;entryX=0;entryY=0.5;entryDx=0;entryDy=0;" edge="1" parent="1">
          <mxGeometry relative="1" as="geometry">
            <mxPoint x="1000" y="3412.5" as="sourcePoint" />
            <mxPoint x="155" y="2592.5" as="targetPoint" />
            <Array as="points">
              <mxPoint x="1020" y="3413" />
              <mxPoint x="1020" y="3600" />
              <mxPoint x="40" y="3600" />
              <mxPoint x="40" y="2593" />
            </Array>
          </mxGeometry>
        </mxCell>
        <mxCell id="R_zZnniNDLEBb9LRn-yh-134" value="&quot;Idade inválida&quot;" style="shape=display;whiteSpace=wrap;html=1;" vertex="1" parent="1">
          <mxGeometry x="860" y="3395" width="140" height="40" as="geometry" />
        </mxCell>
        <mxCell id="R_zZnniNDLEBb9LRn-yh-135" style="edgeStyle=orthogonalEdgeStyle;rounded=0;orthogonalLoop=1;jettySize=auto;html=1;exitX=0.5;exitY=1;exitDx=0;exitDy=0;" edge="1" parent="1" source="R_zZnniNDLEBb9LRn-yh-136">
          <mxGeometry relative="1" as="geometry">
            <mxPoint x="735" y="3600" as="targetPoint" />
          </mxGeometry>
        </mxCell>
        <mxCell id="R_zZnniNDLEBb9LRn-yh-136" value="totalParticipantes = totalParticipantes + 1&amp;nbsp;" style="rounded=0;whiteSpace=wrap;html=1;" vertex="1" parent="1">
          <mxGeometry x="630" y="3500" width="210" height="60" as="geometry" />
        </mxCell>
        <mxCell id="R_zZnniNDLEBb9LRn-yh-137" value="" style="edgeStyle=orthogonalEdgeStyle;rounded=0;orthogonalLoop=1;jettySize=auto;html=1;" edge="1" parent="1" source="R_zZnniNDLEBb9LRn-yh-138" target="R_zZnniNDLEBb9LRn-yh-147">
          <mxGeometry relative="1" as="geometry" />
        </mxCell>
        <mxCell id="R_zZnniNDLEBb9LRn-yh-138" value="&lt;div&gt;&lt;br&gt;&lt;/div&gt;nomePalestrante" style="shape=manualInput;whiteSpace=wrap;html=1;" vertex="1" parent="1">
          <mxGeometry x="409.69" y="3180" width="160.62" height="70" as="geometry" />
        </mxCell>
        <mxCell id="R_zZnniNDLEBb9LRn-yh-139" value="" style="edgeStyle=orthogonalEdgeStyle;rounded=0;orthogonalLoop=1;jettySize=auto;html=1;" edge="1" parent="1" source="R_zZnniNDLEBb9LRn-yh-140" target="R_zZnniNDLEBb9LRn-yh-138">
          <mxGeometry relative="1" as="geometry" />
        </mxCell>
        <mxCell id="R_zZnniNDLEBb9LRn-yh-140" value="&quot;Digite seu nome:&quot;" style="shape=display;whiteSpace=wrap;html=1;" vertex="1" parent="1">
          <mxGeometry x="420" y="3095" width="140" height="40" as="geometry" />
        </mxCell>
        <mxCell id="R_zZnniNDLEBb9LRn-yh-141" style="edgeStyle=orthogonalEdgeStyle;rounded=0;orthogonalLoop=1;jettySize=auto;html=1;exitX=0.5;exitY=1;exitDx=0;exitDy=0;" edge="1" parent="1" source="R_zZnniNDLEBb9LRn-yh-142">
          <mxGeometry relative="1" as="geometry">
            <mxPoint x="490" y="3600" as="targetPoint" />
          </mxGeometry>
        </mxCell>
        <mxCell id="R_zZnniNDLEBb9LRn-yh-142" value="nomePalestra&lt;div&gt;&lt;/div&gt;" style="shape=manualInput;whiteSpace=wrap;html=1;" vertex="1" parent="1">
          <mxGeometry x="409.69" y="3390" width="160.62" height="70" as="geometry" />
        </mxCell>
        <mxCell id="R_zZnniNDLEBb9LRn-yh-143" value="" style="edgeStyle=orthogonalEdgeStyle;rounded=0;orthogonalLoop=1;jettySize=auto;html=1;" edge="1" parent="1" source="R_zZnniNDLEBb9LRn-yh-145" target="R_zZnniNDLEBb9LRn-yh-140">
          <mxGeometry relative="1" as="geometry" />
        </mxCell>
        <mxCell id="R_zZnniNDLEBb9LRn-yh-144" value="" style="edgeStyle=orthogonalEdgeStyle;rounded=0;orthogonalLoop=1;jettySize=auto;html=1;" edge="1" parent="1" source="R_zZnniNDLEBb9LRn-yh-145" target="R_zZnniNDLEBb9LRn-yh-149">
          <mxGeometry relative="1" as="geometry" />
        </mxCell>
        <mxCell id="R_zZnniNDLEBb9LRn-yh-145" value="Opcao == 2&amp;nbsp;" style="rhombus;whiteSpace=wrap;html=1;rounded=0;" vertex="1" parent="1">
          <mxGeometry x="175" y="3070" width="190" height="90" as="geometry" />
        </mxCell>
        <mxCell id="R_zZnniNDLEBb9LRn-yh-146" value="" style="edgeStyle=orthogonalEdgeStyle;rounded=0;orthogonalLoop=1;jettySize=auto;html=1;" edge="1" parent="1" source="R_zZnniNDLEBb9LRn-yh-147" target="R_zZnniNDLEBb9LRn-yh-142">
          <mxGeometry relative="1" as="geometry" />
        </mxCell>
        <mxCell id="R_zZnniNDLEBb9LRn-yh-147" value="&quot;Digite o nome da sua palestra:&quot;" style="shape=display;whiteSpace=wrap;html=1;" vertex="1" parent="1">
          <mxGeometry x="415" y="3290" width="150" height="60" as="geometry" />
        </mxCell>
        <mxCell id="R_zZnniNDLEBb9LRn-yh-148" value="" style="edgeStyle=orthogonalEdgeStyle;rounded=0;orthogonalLoop=1;jettySize=auto;html=1;" edge="1" parent="1" source="R_zZnniNDLEBb9LRn-yh-149" target="R_zZnniNDLEBb9LRn-yh-151">
          <mxGeometry relative="1" as="geometry" />
        </mxCell>
        <mxCell id="R_zZnniNDLEBb9LRn-yh-149" value="Opcao == 3" style="rhombus;whiteSpace=wrap;html=1;rounded=0;" vertex="1" parent="1">
          <mxGeometry x="175" y="3190" width="190" height="90" as="geometry" />
        </mxCell>
        <mxCell id="R_zZnniNDLEBb9LRn-yh-150" value="" style="edgeStyle=orthogonalEdgeStyle;rounded=0;orthogonalLoop=1;jettySize=auto;html=1;" edge="1" parent="1" source="R_zZnniNDLEBb9LRn-yh-151" target="R_zZnniNDLEBb9LRn-yh-153">
          <mxGeometry relative="1" as="geometry" />
        </mxCell>
        <mxCell id="R_zZnniNDLEBb9LRn-yh-151" value="de total =0 até total &amp;lt; totalPalestrantes" style="shape=hexagon;perimeter=hexagonPerimeter2;whiteSpace=wrap;html=1;fixedSize=1;" vertex="1" parent="1">
          <mxGeometry x="170" y="3310" width="200" height="40" as="geometry" />
        </mxCell>
        <mxCell id="R_zZnniNDLEBb9LRn-yh-152" style="edgeStyle=orthogonalEdgeStyle;rounded=0;orthogonalLoop=1;jettySize=auto;html=1;exitX=0;exitY=0;exitDx=101.25;exitDy=95;exitPerimeter=0;entryX=0;entryY=0.5;entryDx=0;entryDy=0;" edge="1" parent="1" source="R_zZnniNDLEBb9LRn-yh-153" target="R_zZnniNDLEBb9LRn-yh-151">
          <mxGeometry relative="1" as="geometry">
            <Array as="points">
              <mxPoint x="271" y="3520" />
              <mxPoint x="150" y="3520" />
              <mxPoint x="150" y="3330" />
            </Array>
          </mxGeometry>
        </mxCell>
        <mxCell id="R_zZnniNDLEBb9LRn-yh-153" value="&quot;Palestrante:&quot; nomePalestrante&lt;div&gt;&quot;Tema: &quot; nomePalestra&lt;/div&gt;" style="shape=display;whiteSpace=wrap;html=1;" vertex="1" parent="1">
          <mxGeometry x="169.38" y="3385" width="200" height="95" as="geometry" />
        </mxCell>
        <mxCell id="R_zZnniNDLEBb9LRn-yh-154" style="edgeStyle=orthogonalEdgeStyle;rounded=0;orthogonalLoop=1;jettySize=auto;html=1;exitX=1;exitY=0.5;exitDx=0;exitDy=0;entryX=0;entryY=0.5;entryDx=0;entryDy=0;entryPerimeter=0;" edge="1" parent="1" source="R_zZnniNDLEBb9LRn-yh-151" target="R_zZnniNDLEBb9LRn-yh-112">
          <mxGeometry relative="1" as="geometry">
            <Array as="points">
              <mxPoint x="370" y="3550" />
              <mxPoint x="80" y="3550" />
              <mxPoint x="80" y="2750" />
            </Array>
          </mxGeometry>
        </mxCell>
        <mxCell id="R_zZnniNDLEBb9LRn-yh-155" value="totalPalestrantes = totalPalestrantes + 1&amp;nbsp;" style="rounded=0;whiteSpace=wrap;html=1;" vertex="1" parent="1">
          <mxGeometry x="395" y="3500" width="210" height="60" as="geometry" />
        </mxCell>
        <mxCell id="R_zZnniNDLEBb9LRn-yh-156" value="" style="edgeStyle=orthogonalEdgeStyle;rounded=0;orthogonalLoop=1;jettySize=auto;html=1;" edge="1" parent="1" source="R_zZnniNDLEBb9LRn-yh-157" target="R_zZnniNDLEBb9LRn-yh-160">
          <mxGeometry relative="1" as="geometry" />
        </mxCell>
        <mxCell id="R_zZnniNDLEBb9LRn-yh-157" value="&quot;Limite de cadastro excedido&quot;" style="shape=display;whiteSpace=wrap;html=1;" vertex="1" parent="1">
          <mxGeometry x="405.63" y="2572.5" width="159.37" height="45" as="geometry" />
        </mxCell>
        <mxCell id="R_zZnniNDLEBb9LRn-yh-158" value="F" style="text;html=1;align=center;verticalAlign=middle;resizable=0;points=[];autosize=1;strokeColor=none;fillColor=none;" vertex="1" parent="1">
          <mxGeometry x="325" y="2548" width="30" height="30" as="geometry" />
        </mxCell>
        <mxCell id="R_zZnniNDLEBb9LRn-yh-159" value="V" style="text;html=1;align=center;verticalAlign=middle;resizable=0;points=[];autosize=1;strokeColor=none;fillColor=none;" vertex="1" parent="1">
          <mxGeometry x="175" y="2628" width="30" height="30" as="geometry" />
        </mxCell>
        <mxCell id="R_zZnniNDLEBb9LRn-yh-160" value="FIM" style="ellipse;whiteSpace=wrap;html=1;aspect=fixed;" vertex="1" parent="1">
          <mxGeometry x="605" y="2555" width="80" height="80" as="geometry" />
        </mxCell>
      </root>
    </mxGraphModel>
  </diagram>
</mxfile>
